<svg width="76" height="108" viewBox="0 0 76 108" fill="none" xmlns="http://www.w3.org/2000/svg">
<g id="trash-can">
<path d="M5.01411 30.6199C5.93351 31.2339 6.94643 31.6139 8.00124 31.8341C6.74095 54.5575 4.2604 78.2808 12.834 99.9723C13.2464 101.015 14.003 101.668 14.8708 102.002C15.169 102.406 15.5932 102.765 16.2051 103.03C31.5276 109.625 47.8121 109.336 63.523 104.053C65.5762 103.362 66.2012 101.473 65.8274 99.864C68.811 77.8545 71.6416 55.1937 69.3 32.9988C71.1535 32.603 72.8856 31.8454 74.1731 30.4577C76.7166 27.7139 76.2276 24.1837 74.9749 21.0351C74.9775 20.1596 74.5518 19.3219 73.5853 18.747C73.2018 18.4592 72.7464 18.2589 72.2607 18.1527C65.2238 15.2381 57.734 13.7149 50.0722 13.0071C50.2069 12.3436 50.148 11.6172 49.8163 10.8715C47.4238 5.52418 42.6601 -0.780101 35.8098 0.0791461C29.2142 0.905813 26.018 7.14425 24.6824 12.8648C20.2769 13.0892 15.9147 13.3712 11.6547 13.6094C11.6251 13.6105 11.5989 13.6204 11.5695 13.6227C11.3674 13.5977 11.1619 13.5853 10.9517 13.6094C6.38517 14.1295 2.54112 16.2458 0.542048 20.4028C0.276215 20.9551 0.144837 21.5381 0.130871 22.1096C-0.0464302 22.6729 -0.0585014 23.3206 0.187448 24.047C1.11348 26.77 2.56314 28.9808 5.01411 30.6199ZM59.0081 98.3247C46.0151 102.203 32.4579 102.618 19.75 97.1479C19.557 97.0653 19.3658 97.0151 19.1766 96.9639C11.373 76.1415 13.8186 53.4975 15.0308 31.7628C30.5438 30.6973 46.1702 30.4648 61.62 32.3517C61.8025 32.538 62.0118 32.7 62.2464 32.8423C64.5626 54.5676 61.9194 76.7531 59.0081 98.3247ZM36.4151 6.81271C39.4775 6.42817 41.6243 9.87044 42.9463 12.5741C39.2893 12.4512 35.6152 12.4716 31.952 12.5741C32.6953 9.96198 33.9965 7.11557 36.4151 6.81271ZM8.5258 21.2749C8.09356 21.6372 9.68998 20.6995 9.18269 20.9039C9.53729 20.7605 9.9106 20.6639 10.2808 20.5648C10.1961 20.5875 11.4414 20.3631 10.9514 20.418C10.9948 20.4131 11.0355 20.401 11.0783 20.395C11.2641 20.412 11.4493 20.4299 11.6535 20.418C29.9631 19.3898 51.2655 16.8901 68.6545 24.0105C68.7097 24.1688 68.7807 24.3216 68.8311 24.4829C68.9009 24.7165 68.9585 24.9542 69.0077 25.1926C69.0115 25.2453 69.015 25.3016 69.0212 25.3837C69.0259 25.5067 69.0162 25.6308 69.0115 25.7535C69.0091 25.7639 69.0032 25.788 68.9994 25.8001C68.9251 25.788 68.4152 26.1438 68.623 26.1055C68.2372 26.2441 67.8357 26.3418 67.4354 26.4288C67.2442 26.4708 66.9918 26.5004 66.7059 26.5219C66.3333 26.2601 65.8705 26.0647 65.2766 25.986C47.4539 23.6145 29.5567 23.8242 11.6535 25.1832C11.3307 25.2082 11.0393 25.2763 10.7632 25.3619C9.01793 25.338 7.90489 24.5171 7.17533 22.7777C7.51242 22.2291 7.86583 21.8283 8.5258 21.2749Z" fill="black"/>
<path d="M26.4079 42.8901C26.3657 38.5014 19.3412 38.4977 19.3819 42.8901C19.4853 53.8595 20.7901 64.704 22.1924 75.5743C22.7459 79.8721 29.7778 79.9247 29.2184 75.5743C27.8152 64.7028 26.5113 53.8593 26.4079 42.8901Z" fill="black"/>
<path d="M41.1613 42.2091C40.9184 37.8424 33.8919 37.8186 34.1353 42.2091C34.8049 54.2507 35.2533 66.3025 36.5948 78.2982C37.0774 82.616 44.1077 82.6614 43.6207 78.2982C42.279 66.3025 41.8297 54.2507 41.1613 42.2091Z" fill="black"/>
<path d="M49.7174 42.7735C51.6095 56.2441 50.7043 69.8606 50.6453 83.4046C50.6261 87.7958 57.651 87.7946 57.6713 83.4046C57.7329 69.2032 58.4745 55.0815 56.4925 40.9623C55.8827 36.6294 49.114 38.4821 49.7174 42.7735Z" fill="black"/>
</g>
</svg>
